<svg width="26" height="25" viewBox="0 0 26 25" fill="none" xmlns="http://www.w3.org/2000/svg">
<path fill-rule="evenodd" clip-rule="evenodd" d="M13.009 2.5C8.86132 2.5 5.50674 5.63 5.50674 9.5C5.50674 14.75 13.009 22.5 13.009 22.5C13.009 22.5 20.5112 14.75 20.5112 9.5C20.5112 5.63 17.1567 2.5 13.009 2.5ZM7.65024 9.5C7.65024 6.74 10.051 4.5 13.009 4.5C15.967 4.5 18.3677 6.74 18.3677 9.5C18.3677 12.38 15.2811 16.69 13.009 19.38C10.7797 16.71 7.65024 12.35 7.65024 9.5Z" fill="#094B89"/>
<path fill-rule="evenodd" clip-rule="evenodd" d="M13.009 12C14.4888 12 15.6883 10.8807 15.6883 9.5C15.6883 8.11929 14.4888 7 13.009 7C11.5292 7 10.3296 8.11929 10.3296 9.5C10.3296 10.8807 11.5292 12 13.009 12Z" fill="#5151E1"/>
</svg>
