<svg width="86" height="54" viewBox="0 0 86 54" fill="none" xmlns="http://www.w3.org/2000/svg">
<path fill-rule="evenodd" clip-rule="evenodd" d="M17.24 53.6666C19.96 53.6666 22.4667 52.1199 23.64 49.7199L31.2134 34.5733C31.96 33.0799 32.3334 31.4799 32.3334 29.8266V5.66658C32.3334 2.73325 29.9334 0.333252 27 0.333252H5.66671C2.73337 0.333252 0.333374 2.73325 0.333374 5.66658V26.9999C0.333374 29.9333 2.73337 32.3333 5.66671 32.3333H16.3334L10.84 43.3199C8.44004 48.0666 11.9067 53.6666 17.24 53.6666ZM70.5734 53.6666C73.2934 53.6666 75.8 52.1199 76.9734 49.7199L84.5467 34.5733C85.2934 33.0799 85.6667 31.4799 85.6667 29.8266V5.66658C85.6667 2.73325 83.2667 0.333252 80.3334 0.333252H59C56.0667 0.333252 53.6667 2.73325 53.6667 5.66658V26.9999C53.6667 29.9333 56.0667 32.3333 59 32.3333H69.6667L64.1734 43.3199C61.7734 48.0666 65.24 53.6666 70.5734 53.6666Z" fill="#0D7EB7"/>
</svg>
