<svg xmlns="http://www.w3.org/2000/svg" version="1.1" width="512" height="512">
<path d="M0 0 C1.17949219 -0.00744736 1.17949219 -0.00744736 2.3828125 -0.01504517 C4.97274674 -0.02959296 7.56261958 -0.03645905 10.15258789 -0.04199219 C11.48980487 -0.04623325 11.48980487 -0.04623325 12.85403633 -0.05056 C17.57863788 -0.06552847 22.30320913 -0.07477071 27.02783203 -0.07910156 C31.86903856 -0.08455997 36.70996011 -0.1085388 41.55107784 -0.13707352 C45.30642965 -0.15585924 49.06171527 -0.16091405 52.81711006 -0.16243744 C54.59939685 -0.16543243 56.38168337 -0.17335187 58.16392326 -0.18662262 C84.03107016 -0.36536934 105.53657994 6.25994652 124.68774414 24.34863281 C139.37082879 39.6729002 148.9360593 60.47619981 148.93798828 81.86865234 C148.84792287 84.86453923 148.71349275 87.85519624 148.56274414 90.84863281 C148.51601563 91.92918945 148.46928711 93.00974609 148.42114258 94.12304688 C148.18030528 99.5889371 147.88914115 105.04881095 147.53930664 110.50878906 C147.48049316 111.50370361 147.42167969 112.49861816 147.36108398 113.52368164 C147.24808794 115.40594112 147.12146371 117.28744709 146.97924805 119.16772461 C146.92945801 120.01633057 146.87966797 120.86493652 146.82836914 121.73925781 C146.77712891 122.47563477 146.72588867 123.21201172 146.6730957 123.97070312 C146.79227659 126.30290497 146.79227659 126.30290497 148.41748047 128.44604492 C150.39082053 131.97029653 150.38749655 135.09059754 150.37133789 139.02441406 C150.37657974 139.77522751 150.38182159 140.52604095 150.38722229 141.29960632 C150.39362623 142.88388843 150.39232657 144.46821819 150.38378906 146.05249023 C150.37530595 148.4561199 150.40401508 150.8573486 150.43579102 153.26074219 C150.47819291 162.21512307 150.42395629 169.28642394 144.04321289 176.21972656 C143.4102832 176.67476562 142.77735352 177.12980469 142.12524414 177.59863281 C141.18745117 178.30826172 141.18745117 178.30826172 140.23071289 179.03222656 C137.19139984 180.52858341 134.28476281 180.80987754 130.93774414 181.16113281 C130.80819336 182.41603516 130.80819336 182.41603516 130.67602539 183.69628906 C128.2663042 203.65939216 120.21944642 220.44969984 107.93774414 236.16113281 C108.62739258 236.3196875 109.31704102 236.47824219 110.02758789 236.64160156 C125.56253485 240.49870088 137.57304245 249.45677223 145.93774414 263.16113281 C146.33606445 263.76699219 146.73438477 264.37285156 147.14477539 264.99707031 C151.77820972 272.38974082 153.24778355 280.60562144 153.93774414 289.16113281 C154.81027832 289.28641357 155.6828125 289.41169434 156.58178711 289.54077148 C161.96992065 290.53678831 166.94314718 292.55761599 172.06274414 294.47363281 C173.1468457 294.86486328 174.23094727 295.25609375 175.34790039 295.65917969 C176.39075195 296.04783203 177.43360352 296.43648438 178.50805664 296.83691406 C179.45438965 297.18665283 180.40072266 297.5363916 181.37573242 297.89672852 C184.21791244 299.2994015 185.93932062 300.70778124 187.93774414 303.16113281 C188.18774414 306.41113281 188.18774414 306.41113281 187.93774414 309.16113281 C188.56430908 309.31678711 189.19087402 309.47244141 189.83642578 309.6328125 C198.5341895 311.8892744 206.87628035 314.95869365 215.27734375 318.12890625 C217.11761784 318.82105629 218.9631702 319.49912137 220.80883789 320.17675781 C221.89092529 320.5818457 222.9730127 320.98693359 224.08789062 321.40429688 C226.99793994 322.17711902 228.20277733 322.29641602 230.93774414 321.16113281 C231.92774414 320.50113281 232.91774414 319.84113281 233.93774414 319.16113281 C241.68175288 318.33979855 247.65888101 322.75564107 253.52856445 327.42724609 C272.86829005 343.7957848 283.59707722 362.61765451 286.35214233 387.97525024 C286.65561872 391.91671801 286.89644489 395.85838449 287.10571289 399.80566406 C287.1903943 401.26897753 287.27580564 402.73224891 287.3618927 404.19548035 C287.53899128 407.24481238 287.70885341 410.29442892 287.87304688 413.34448242 C288.07929355 417.16916429 288.30146378 420.99271209 288.52848625 424.81620979 C289.37588887 439.15306444 290.10899741 453.4978094 290.30102539 467.86035156 C290.32770798 468.8979512 290.35439056 469.93555084 290.38188171 471.0045929 C290.40778138 478.42540966 288.88524363 483.73630548 284.00805664 489.40332031 C283.36610352 489.94214844 282.72415039 490.48097656 282.06274414 491.03613281 C281.42594727 491.59042969 280.78915039 492.14472656 280.13305664 492.71582031 C274.99446551 496.09887853 269.78660569 496.45146996 263.79072857 496.41840172 C262.982836 496.42190779 262.17494343 496.42541387 261.34256926 496.42902619 C258.63030378 496.43834408 255.91825283 496.43341585 253.20597839 496.42855835 C251.24380754 496.43229441 249.28163818 496.43689575 247.31947118 496.44228899 C241.92323664 496.45453982 236.527064 496.45425607 231.13081872 496.45190024 C225.31269203 496.45149261 219.49458531 496.46252613 213.6764679 496.47201538 C202.27620432 496.4886376 190.87596143 496.49412547 179.47568675 496.49524014 C170.21055221 496.49619 160.94542451 496.50029719 151.68029213 496.50664139 C149.01338127 496.5084304 146.3464704 496.5102161 143.67955953 496.51199114 C143.01655869 496.51243324 142.35355784 496.51287534 141.67046607 496.51333083 C123.0213732 496.52563928 104.37228265 496.53353195 85.72318554 496.53264427 C84.66850791 496.53259754 84.66850791 496.53259754 83.59252366 496.53254986 C80.02882282 496.53238364 76.46512199 496.53218556 72.90142115 496.53198044 C72.19365669 496.53194055 71.48589222 496.53190066 70.75668035 496.53185956 C69.32540815 496.53177869 67.89413596 496.53169509 66.46286377 496.53160878 C44.1939664 496.53038323 21.92512994 496.54539704 -0.34375 496.57275391 C-25.36243824 496.60347618 -50.38108646 496.62068632 -75.39979476 496.61882746 C-88.64682949 496.61808631 -101.89379844 496.62367955 -115.14081764 496.64518356 C-126.41879002 496.66337366 -137.69666259 496.6677605 -148.97464327 496.65416472 C-154.72965209 496.64762425 -160.48446927 496.64755696 -166.23945999 496.66487122 C-171.50796317 496.68055895 -176.77612209 496.67778214 -182.04461666 496.66030295 C-183.9503737 496.6572236 -185.85615617 496.66090051 -187.76188324 496.6720231 C-207.56193998 496.77992895 -207.56193998 496.77992895 -215.40209961 490.19628906 C-215.92932617 489.5453125 -216.45655273 488.89433594 -216.99975586 488.22363281 C-217.5450293 487.57523437 -218.09030273 486.92683594 -218.65209961 486.25878906 C-221.43413762 482.1204112 -222.31405379 478.53974177 -222.29272461 473.58300781 C-222.29159668 472.51203857 -222.29046875 471.44106934 -222.28930664 470.33764648 C-222.27625488 469.20689697 -222.26320312 468.07614746 -222.24975586 466.91113281 C-222.24186035 465.75266846 -222.23396484 464.5942041 -222.22583008 463.40063477 C-221.96218202 436.65521061 -221.96218202 436.65521061 -219.06225586 431.16113281 C-216.06225586 429.16113281 -216.06225586 429.16113281 -212.06225586 429.16113281 C-212.07385742 428.07058594 -212.08545898 426.98003906 -212.09741211 425.85644531 C-212.15676012 417.69381065 -212.07310461 409.56308298 -211.62475586 401.41113281 C-211.58552002 400.6739502 -211.54628418 399.93676758 -211.50585938 399.17724609 C-211.26269307 395.11389514 -210.81087778 391.16217095 -210.06225586 387.16113281 C-210.66038086 387.07863281 -211.25850586 386.99613281 -211.87475586 386.91113281 C-214.06225586 386.16113281 -214.06225586 386.16113281 -215.87475586 384.66113281 C-218.88856663 378.31626804 -215.45006768 370.22100131 -213.34448242 363.96386719 C-209.28879634 352.76457955 -202.4218126 343.53469216 -194.06225586 335.16113281 C-192.92336914 334.00484375 -192.92336914 334.00484375 -191.76147461 332.82519531 C-180.91245752 322.42008236 -167.96277298 316.96678284 -153.99975586 312.16113281 C-152.47009315 311.62374851 -150.94088981 311.08505513 -149.41210938 310.54516602 C-146.10618734 309.379318 -142.79782701 308.22073594 -139.48803711 307.06591797 C-133.58381913 305.00022912 -127.69800954 302.88421417 -121.81225586 300.76660156 C-118.72300618 299.65762769 -115.63354043 298.5492583 -112.54397583 297.44116211 C-110.51779159 296.71399204 -108.49197201 295.98580508 -106.46652222 295.2565918 C-103.62378117 294.23441165 -100.77888748 293.21846538 -97.93334961 292.20410156 C-97.07874146 291.8953862 -96.2241333 291.58667084 -95.34362793 291.26860046 C-94.55782349 290.98974503 -93.77201904 290.71088959 -92.96240234 290.42358398 C-92.27822739 290.17855637 -91.59405243 289.93352875 -90.8891449 289.68107605 C-89.06225586 289.16113281 -89.06225586 289.16113281 -86.06225586 289.16113281 C-85.97588867 288.36191406 -85.88952148 287.56269531 -85.80053711 286.73925781 C-83.75463773 270.74745717 -77.05847793 257.49153531 -64.61694336 247.00878906 C-57.44213449 241.81966888 -49.44566991 237.95560416 -41.06225586 235.16113281 C-41.63073242 234.38511719 -42.19920898 233.60910156 -42.78491211 232.80957031 C-54.25915035 216.87243498 -61.03149789 200.72053852 -63.06225586 181.16113281 C-63.63073242 181.08636719 -64.19920898 181.01160156 -64.78491211 180.93457031 C-70.80134817 179.91006868 -75.22908379 178.05686813 -79.06225586 173.16113281 C-81.6769595 167.99021821 -82.50025575 163.77816196 -82.42553711 157.96191406 C-82.42628487 156.82570869 -82.42628487 156.82570869 -82.42704773 155.66654968 C-82.42472199 154.07739618 -82.41508288 152.48823795 -82.3984375 150.89916992 C-82.37471922 148.46988035 -82.37790326 146.0416817 -82.38452148 143.61230469 C-82.37894772 142.06216796 -82.37183974 140.51203582 -82.36303711 138.96191406 C-82.36394852 138.23893631 -82.36485992 137.51595856 -82.36579895 136.77107239 C-82.31281358 133.00323329 -81.93443189 130.42206129 -80.06225586 127.16113281 C-79.89162675 124.53517981 -79.82753497 122.03277757 -79.87475586 119.41113281 C-79.88120117 118.65743408 -79.88764648 117.90373535 -79.89428711 117.12719727 C-79.96033943 112.18720631 -80.21626795 107.27770696 -80.56225586 102.34863281 C-82.44975095 74.25826474 -78.99500215 49.93017657 -60.43725586 27.59863281 C-45.02674086 11.06627955 -22.72617224 0.03475453 0 0 Z M-61.06225586 267.16113281 C-64.60186505 271.92454306 -66.73821547 276.38350201 -68.06225586 282.16113281 C-62.48575214 280.56830022 -56.99417298 278.81219035 -51.53100586 276.86425781 C-50.39018555 276.46335937 -49.24936523 276.06246094 -48.07397461 275.64941406 C-45.72788731 274.8221508 -43.38668079 273.9809168 -41.05053711 273.12597656 C-32.78045403 270.25714548 -26.43025281 269.3718005 -18.06225586 272.16113281 C-17.89999867 269.40877008 -17.78132306 266.66595805 -17.68725586 263.91113281 C-17.63698242 263.13382812 -17.58670898 262.35652344 -17.53491211 261.55566406 C-17.4766226 259.28237324 -17.50976792 257.36912141 -18.06225586 255.16113281 C-21.37409269 252.17770439 -23.26308074 251.25758498 -27.68725586 250.72363281 C-40.94891773 251.50819678 -52.56750634 256.88942038 -61.06225586 267.16113281 Z M85.93774414 255.16113281 C85.33143714 258.10263699 85.46424257 260.92393446 85.62524414 263.91113281 C85.64780273 264.70390625 85.67036133 265.49667969 85.69360352 266.31347656 C85.75233943 268.26350901 85.8420176 270.21256593 85.93774414 272.16113281 C86.88649414 271.81050781 87.83524414 271.45988281 88.81274414 271.09863281 C99.22983121 268.25360829 109.30581604 273.15884182 118.93774414 276.78613281 C121.05927733 277.57972378 123.18188995 278.36976253 125.30810547 279.15072632 C127.21642617 279.85228576 129.12019091 280.56620132 131.02368164 281.28076172 C133.84070274 282.49580896 133.84070274 282.49580896 135.93774414 281.16113281 C131.30735659 269.39450091 123.8512401 259.31188048 112.06665039 253.93847656 C103.8303509 250.93109381 92.42693712 247.90850536 85.93774414 255.16113281 Z " fill="#020201" transform="translate(222.062255859375,7.8388671875)"/>
<path d="M0 0 C1.79231454 2.65038422 2.87768905 5.56827062 4.046875 8.53515625 C4.41504333 9.42319443 4.78321167 10.3112326 5.16253662 11.22618103 C6.37628563 14.16460019 7.56270981 17.11330238 8.75 20.0625 C9.5962168 22.12260473 10.44455065 24.18184103 11.29492188 26.24023438 C13.03575665 30.45796571 14.76795023 34.67908735 16.49414062 38.90283203 C19.7425709 46.83164417 23.10039281 54.71269848 26.47009277 62.59054565 C28.21491294 66.67252938 29.95119492 70.75813864 31.6875 74.84375 C32.03641296 75.66451523 32.38532593 76.48528046 32.74481201 77.33091736 C36.61092316 86.42991481 40.45363912 95.53876778 44.29611206 104.64776611 C45.48980792 107.47585308 46.68518257 110.30322442 47.88110352 113.13037109 C51.48839061 121.66069847 55.08668129 130.1942186 58.63986206 138.74725342 C60.19488101 142.4865597 61.75864116 146.22217467 63.32373047 149.95727539 C64.06021005 151.72130704 64.79254315 153.48707615 65.52050781 155.25463867 C66.52275203 157.68729516 67.53899498 160.11363943 68.55859375 162.5390625 C68.84943344 163.25554962 69.14027313 163.97203674 69.43992615 164.7102356 C71.03692536 168.46529131 72.33248291 171.05072383 76 173 C79.5 173.66666667 79.5 173.66666667 83 173 C86.98978884 169.00724735 88.84499154 164.20558201 90.94921875 159.07421875 C91.31880203 158.19184036 91.68838531 157.30946198 92.06916809 156.40034485 C93.2826071 153.49906151 94.4849066 150.59329354 95.6875 147.6875 C96.53946007 145.64610665 97.39233732 143.60509585 98.24609375 141.56445312 C99.99287969 137.38837199 101.73643538 133.21096447 103.47802734 129.03271484 C106.77104496 121.14320977 110.11808906 113.27696583 113.47137451 105.41293335 C115.21144296 101.33110838 116.94771432 97.24767037 118.68359375 93.1640625 C119.20666107 91.93356422 119.20666107 91.93356422 119.74029541 90.6782074 C123.62434996 81.53680362 127.49025695 72.38775048 131.35324097 63.23742676 C132.55105894 60.40208203 133.7510193 57.56765223 134.95141602 54.73339844 C138.50137974 46.34407692 142.03346023 37.94907575 145.48176575 29.5173645 C146.9460139 25.93847606 148.42051015 22.36384935 149.89547729 18.78936768 C150.58527738 17.10835245 151.26954892 15.42505704 151.94802856 13.73944092 C152.87777023 11.42992629 153.82542418 9.12856776 154.77734375 6.828125 C155.04630463 6.14507294 155.3152655 5.46202087 155.59237671 4.75827026 C157.47506685 0.27934567 157.47506685 0.27934567 159.90576172 -1.01416016 C162.45418158 -0.99692906 164.3307645 -0.46641963 166.73046875 0.3984375 C168.05788086 0.87023437 168.05788086 0.87023437 169.41210938 1.3515625 C170.78592773 1.85816406 170.78592773 1.85816406 172.1875 2.375 C173.5787207 2.87 173.5787207 2.87 174.99804688 3.375 C181.83609821 5.83609821 181.83609821 5.83609821 183 7 C183.09413687 9.05556661 183.11742998 11.11440181 183.11352539 13.17211914 C183.11367142 13.81600082 183.11381744 14.45988251 183.1139679 15.12327576 C183.11326885 17.26060303 183.10547691 19.39784413 183.09765625 21.53515625 C183.09579204 23.01346285 183.09436815 24.49177007 183.09336853 25.97007751 C183.08954359 29.86798802 183.07971352 33.76586149 183.06866455 37.66375732 C183.05844992 41.63846333 183.0538708 45.61317529 183.04882812 49.58789062 C183.03809122 57.391944 183.02101509 65.19596682 183 73 C182.03650635 73.47195801 181.0730127 73.94391602 180.08032227 74.43017578 C178.80476041 75.06003943 177.52929339 75.69009515 176.25390625 76.3203125 C175.62021118 76.63009033 174.98651611 76.93986816 174.33361816 77.2590332 C165.58112953 81.59680191 161.14612258 86.20657519 157 95 C156.401875 96.175625 155.80375 97.35125 155.1875 98.5625 C152.16948328 107.21761693 152.80964474 118.58037979 156.7421875 126.76171875 C157.15726562 127.50035156 157.57234375 128.23898437 158 129 C158.43570312 129.79019531 158.87140625 130.58039063 159.3203125 131.39453125 C164.45452598 139.85335838 171.73024262 144.77500244 181 148 C184.39132451 148.84172822 184.39132451 148.84172822 188 149 C189.25103516 149.09474609 189.25103516 149.09474609 190.52734375 149.19140625 C201.19991353 149.65543102 209.74525241 145.59112284 218 139 C224.67787261 132.81292872 228.68685493 124.5101488 229.203125 115.42578125 C229.45723688 102.18783875 227.08523886 93.22482274 218.32421875 83.0546875 C212.06787349 76.86532667 207.16231561 76.27225558 198 73 C198 52.87 198 32.74 198 12 C204.60449219 14.2014974 211.07997395 16.51713285 217.5703125 19.01171875 C221.25370484 20.07310629 224.18688391 20.33177848 228 20 C228.61875 19.29875 229.2375 18.5975 229.875 17.875 C230.57625 17.25625 231.2775 16.6375 232 16 C241.32317955 17.34901312 250.15984012 21.20121383 258.94799805 24.4855957 C261.01017974 25.2537198 263.07687689 26.00847424 265.14453125 26.76171875 C266.36503174 27.21506592 267.58553223 27.66841309 268.84301758 28.13549805 C271.9180248 28.97755207 273.13860301 29.24424105 276 28 C277.485 27.01 277.485 27.01 279 26 C286.74400874 25.17866574 292.72113687 29.59450826 298.59082031 34.26611328 C317.93054591 50.63465199 328.65933308 69.45652169 331.41439819 94.81411743 C331.71787457 98.7555852 331.95870075 102.69725168 332.16796875 106.64453125 C332.25265016 108.10784471 332.3380615 109.57111609 332.42414856 111.03434753 C332.60124714 114.08367957 332.77110927 117.13329611 332.93530273 120.18334961 C333.14154941 124.00803147 333.36371964 127.83157927 333.59074211 131.65507698 C334.43814473 145.99193162 335.17125327 160.33667659 335.36328125 174.69921875 C335.40330513 176.25561821 335.40330513 176.25561821 335.44413757 177.84346008 C335.47003724 185.26427685 333.94749948 190.57517266 329.0703125 196.2421875 C328.42835938 196.78101563 327.78640625 197.31984375 327.125 197.875 C326.48820312 198.42929687 325.85140625 198.98359375 325.1953125 199.5546875 C320.05672137 202.93774572 314.84886155 203.29033715 308.85298443 203.25726891 C308.04509186 203.26077498 307.23719929 203.26428105 306.40482512 203.26789337 C303.69255964 203.27721127 300.98050869 203.27228304 298.26823425 203.26742554 C296.3060634 203.27116159 294.34389404 203.27576294 292.38172704 203.28115618 C286.9854925 203.29340701 281.58931986 203.29312326 276.19307458 203.29076743 C270.37494789 203.29035979 264.55684117 203.30139332 258.73872375 203.31088257 C247.33846018 203.32750479 235.93821729 203.33299266 224.53794261 203.33410732 C215.27280807 203.33505719 206.00768037 203.33916438 196.74254799 203.34550858 C194.07563713 203.34729759 191.40872626 203.34908329 188.74181539 203.35085833 C188.07881455 203.35130043 187.4158137 203.35174252 186.73272193 203.35219802 C168.08362905 203.36450647 149.43453851 203.37239914 130.7854414 203.37151146 C129.73076377 203.37146472 129.73076377 203.37146472 128.65477951 203.37141704 C125.09107868 203.37125083 121.52737785 203.37105275 117.96367701 203.37084763 C117.25591255 203.37080774 116.54814808 203.37076785 115.81893621 203.37072675 C114.38766401 203.37064587 112.95639182 203.37056228 111.52511963 203.37047596 C89.25622226 203.36925042 66.9873858 203.38426423 44.71850586 203.41162109 C19.69981762 203.44234337 -5.3188306 203.45955351 -30.3375389 203.45769465 C-43.58457363 203.4569535 -56.83154258 203.46254674 -70.07856178 203.48405075 C-81.35653417 203.50224085 -92.63440673 203.50662769 -103.91238741 203.4930319 C-109.66739623 203.48649143 -115.42221341 203.48642415 -121.17720413 203.5037384 C-126.44570732 203.51942614 -131.71386624 203.51664933 -136.9823608 203.49917014 C-138.88811784 203.49609079 -140.79390031 203.4997677 -142.69962738 203.51089029 C-162.49968412 203.61879614 -162.49968412 203.61879614 -170.33984375 197.03515625 C-171.13068359 196.05869141 -171.13068359 196.05869141 -171.9375 195.0625 C-172.48277344 194.41410156 -173.02804688 193.76570312 -173.58984375 193.09765625 C-176.37188176 188.95927838 -177.25179793 185.37860896 -177.23046875 180.421875 C-177.22934082 179.35090576 -177.22821289 178.27993652 -177.22705078 177.17651367 C-177.21399902 176.04576416 -177.20094727 174.91501465 -177.1875 173.75 C-177.17960449 172.59153564 -177.17170898 171.43307129 -177.16357422 170.23950195 C-176.89992616 143.4940778 -176.89992616 143.4940778 -174 138 C-171 136 -171 136 -167 136 C-167.01160156 134.90945313 -167.02320313 133.81890625 -167.03515625 132.6953125 C-167.09450426 124.53267784 -167.01084875 116.40195017 -166.5625 108.25 C-166.52326416 107.51281738 -166.48402832 106.77563477 -166.44360352 106.01611328 C-166.32348362 104.008889 -166.16299205 102.00419852 -166 100 C-165.96777344 98.90171875 -165.93554688 97.8034375 -165.90234375 96.671875 C-165.60457031 95.79015625 -165.30679688 94.9084375 -165 94 C-163.88496094 93.55398438 -162.76992187 93.10796875 -161.62109375 92.6484375 C-158.037696 91.43408654 -158.037696 91.43408654 -156.99267578 89.29785156 C-156.23893211 87.09123966 -155.63132016 84.88631042 -155.0625 82.625 C-150.14358176 65.8426109 -140.1250561 52.06737407 -125 43 C-112.44585442 36.26009864 -98.60428783 32.1423688 -85.1875 27.5 C-80.43001782 25.84653372 -75.67385989 24.18928614 -70.91796875 22.53125 C-69.78559784 22.13752197 -68.65322693 21.74379395 -67.48654175 21.33813477 C-59.85403116 18.67573709 -52.27724177 15.89796078 -44.73950195 12.97851562 C-42 12 -42 12 -40 12 C-40 17.94 -40 23.88 -40 30 C-41.32 30.53625 -42.64 31.0725 -44 31.625 C-53.03713615 35.71086375 -58.90746629 40.79831593 -63 50 C-65.16408985 57.18764254 -65.7074626 64.36161487 -66.2890625 71.82421875 C-66.3979573 73.17498029 -66.5072074 74.52571322 -66.61679077 75.87641907 C-66.84473016 78.70609443 -67.06764836 81.53610998 -67.28710938 84.36645508 C-67.5091094 87.2244736 -67.73784728 90.08180657 -67.97363281 92.9387207 C-69.6321436 113.01815458 -69.6321436 113.01815458 -70.4609375 133.14453125 C-70.49385895 133.97168137 -70.5267804 134.79883148 -70.56069946 135.65104675 C-70.58024546 139.71847092 -70.2183857 142.24568942 -67.65869141 145.4909668 C-63.5571094 149.36167003 -59.92084132 149.18236257 -54.5625 149.1875 C-53.24378906 149.20167969 -51.92507812 149.21585938 -50.56640625 149.23046875 C-47.33735505 149.0218006 -45.61131347 148.82856103 -43 147 C-41.60064987 144.20129973 -41.74734595 142.09501208 -42 139 C-43.72642955 136.54695869 -44.72316238 136.05248296 -47.69921875 135.48828125 C-49.64298503 135.37394206 -51.5867513 135.25960286 -53.53051758 135.14526367 C-54.34544678 135.09732666 -55.16037598 135.04938965 -56 135 C-55.41701449 120.6483519 -54.50149834 106.34512744 -53.32543945 92.0300293 C-53.05965589 88.77769724 -52.80405074 85.52466032 -52.54882812 82.27148438 C-52.37821562 80.16661701 -52.2070134 78.06179735 -52.03515625 75.95703125 C-51.92410301 74.52554497 -51.92410301 74.52554497 -51.81080627 73.06513977 C-50.15856371 53.40992862 -50.15856371 53.40992862 -43.27734375 47.52734375 C-38.27875464 43.95976226 -34.05089687 43.03710864 -28 44 C-21.51504061 45.78895432 -17.81633314 49.65282137 -14 55 C-12.86602789 58.40191633 -12.62788929 61.40000972 -12.33569336 64.97827148 C-12.27702591 65.68429504 -12.21835846 66.3903186 -12.15791321 67.11773682 C-11.96491247 69.45190574 -11.77729402 71.78647304 -11.58984375 74.12109375 C-11.45703129 75.74392449 -11.32393512 77.36673204 -11.19056702 78.98951721 C-10.91177031 82.39134739 -10.63546527 85.79336753 -10.36108398 89.19555664 C-10.00944026 93.55496288 -9.65310919 97.91396939 -9.2950964 102.27285671 C-9.02008377 105.62446708 -8.74681715 108.97621788 -8.47415352 112.3280201 C-8.34334321 113.93520135 -8.21216437 115.54235265 -8.08061028 117.14947319 C-7.89705057 119.39696276 -7.71566017 121.64461677 -7.53491211 123.89233398 C-7.37955238 125.81069313 -7.37955238 125.81069313 -7.22105408 127.76780701 C-7.05648833 130.17404297 -7 132.58814317 -7 135 C-8.13888672 135.05607422 -8.13888672 135.05607422 -9.30078125 135.11328125 C-10.29464844 135.17902344 -11.28851563 135.24476563 -12.3125 135.3125 C-13.79169922 135.39951172 -13.79169922 135.39951172 -15.30078125 135.48828125 C-18.28697936 136.05440564 -19.27820909 136.52960435 -21 139 C-21.53184718 143.52870341 -21.53184718 143.52870341 -19.99609375 147.69140625 C-16.79571978 149.78949878 -13.38660041 149.47207103 -9.6875 149.4375 C-8.94048828 149.45748047 -8.19347656 149.47746094 -7.42382812 149.49804688 C-2.16777642 149.49343226 0.8466697 148.47472262 5 145 C12.44650011 133.83024983 5.85521025 109.06384912 4.74047852 96.13830566 C4.4431204 92.67014742 4.15479541 89.20123809 3.86523438 85.73242188 C3.25777823 78.48700864 2.64559039 71.24212845 2 64 C1.91487152 63.02409912 1.82974304 62.04819824 1.74203491 61.04272461 C1.66014923 60.15407715 1.57826355 59.26542969 1.49389648 58.34985352 C1.42452377 57.58407486 1.35515106 56.8182962 1.28367615 56.02931213 C0.13421246 47.80648261 -5.21617544 40.80868509 -11.4765625 35.69140625 C-15.75368507 32.82454236 -20.2328396 30.93100168 -25 29 C-25 21.74 -25 14.48 -25 7 C-14.21447721 2.20643432 -14.21447721 2.20643432 -10.25 0.6875 C-8.92742187 0.16736328 -8.92742187 0.16736328 -7.578125 -0.36328125 C-4.37888085 -1.15339761 -3.07198737 -1.2720852 0 0 Z " fill="#E0EEF9" transform="translate(177,301)"/>
<path d="M0 0 C1.79231454 2.65038422 2.87768905 5.56827062 4.046875 8.53515625 C4.41504333 9.42319443 4.78321167 10.3112326 5.16253662 11.22618103 C6.37628563 14.16460019 7.56270981 17.11330238 8.75 20.0625 C9.5962168 22.12260473 10.44455065 24.18184103 11.29492188 26.24023438 C13.03575665 30.45796571 14.76795023 34.67908735 16.49414062 38.90283203 C19.7425709 46.83164417 23.10039281 54.71269848 26.47009277 62.59054565 C28.21491294 66.67252938 29.95119492 70.75813864 31.6875 74.84375 C32.03641296 75.66451523 32.38532593 76.48528046 32.74481201 77.33091736 C36.61092316 86.42991481 40.45363912 95.53876778 44.29611206 104.64776611 C45.48980792 107.47585308 46.68518257 110.30322442 47.88110352 113.13037109 C51.48839061 121.66069847 55.08668129 130.1942186 58.63986206 138.74725342 C60.19488101 142.4865597 61.75864116 146.22217467 63.32373047 149.95727539 C64.06021005 151.72130704 64.79254315 153.48707615 65.52050781 155.25463867 C66.52275203 157.68729516 67.53899498 160.11363943 68.55859375 162.5390625 C68.84943344 163.25554962 69.14027313 163.97203674 69.43992615 164.7102356 C71.04135148 168.47569854 72.31176848 171.07238278 76 173 C79.92568209 173.9905629 83.63530997 174.136037 87.67549133 174.15821838 C88.33313183 174.16315636 88.99077234 174.16809434 89.66834134 174.17318195 C91.8639341 174.18849541 94.05949776 174.19690079 96.25512695 174.20532227 C97.83220168 174.21490563 99.40927386 174.22491598 100.98634338 174.23532104 C105.26275412 174.26232647 109.53917584 174.28335962 113.81562448 174.30332303 C118.28662375 174.32520952 122.75758933 174.35258517 127.2285614 174.37937927 C135.69279262 174.42927016 144.15704258 174.47422236 152.62131041 174.51740164 C162.25850829 174.56680482 171.89567235 174.62171152 181.53283751 174.67708123 C201.35519349 174.79084595 221.17758177 174.89769698 241 175 C241 178.96 241 182.92 241 187 C133.75 187 26.5 187 -84 187 C-84.33 159.94 -84.66 132.88 -85 105 C-88.42844911 100.79656663 -88.42844911 100.79656663 -92 100.5 C-95.78200005 101.13033334 -96.71355408 101.94467949 -99 105 C-99.40287381 107.78998287 -99.56455224 110.1914415 -99.54589844 112.98144531 C-99.56140495 114.18201065 -99.56140495 114.18201065 -99.57722473 115.40682983 C-99.60667897 118.04746628 -99.60815242 120.68733711 -99.609375 123.328125 C-99.62435492 125.16088322 -99.64108167 126.99362793 -99.65948486 128.82635498 C-99.7031919 133.64649064 -99.72316488 138.4664442 -99.73822021 143.28674316 C-99.75777922 148.2068968 -99.79975058 153.12685342 -99.83984375 158.046875 C-99.91518216 167.69785595 -99.96545164 177.34879288 -100 187 C-107.36268096 187.09273534 -114.72523573 187.16378235 -122.08838272 187.20724869 C-125.5075368 187.22811201 -128.92629094 187.25640505 -132.34521484 187.30175781 C-136.27696931 187.35358618 -140.20856257 187.37295578 -144.140625 187.390625 C-145.97986542 187.42159271 -145.97986542 187.42159271 -147.85626221 187.45318604 C-148.99714294 187.45348816 -150.13802368 187.45379028 -151.31347656 187.45410156 C-152.81905121 187.46742523 -152.81905121 187.46742523 -154.3550415 187.48101807 C-157.77112484 186.85976151 -158.94151349 185.75861079 -161 183 C-161.46083069 180.94468689 -161.46083069 180.94468689 -161.40649414 178.73803711 C-161.39650894 177.90715073 -161.38652374 177.07626434 -161.37623596 176.22019958 C-161.34617966 175.33155716 -161.31612335 174.44291473 -161.28515625 173.52734375 C-161.26599403 172.14815514 -161.26599403 172.14815514 -161.2464447 170.74110413 C-161.20422416 167.80586549 -161.1357993 164.87211577 -161.0625 161.9375 C-160.99452945 158.99939511 -160.93257973 156.06176086 -160.88926697 153.1231842 C-160.86194261 151.29545815 -160.8202128 149.46787951 -160.76271057 147.64085388 C-160.74957321 146.81311966 -160.73643585 145.98538544 -160.72290039 145.13256836 C-160.70417374 144.40516953 -160.68544708 143.67777069 -160.66615295 142.92832947 C-161.10435528 140.39723488 -161.99798022 139.56334119 -164 138 C-164.99 137.67 -165.98 137.34 -167 137 C-167.09595951 127.38272481 -167.09258032 117.79331991 -166.5625 108.1875 C-166.50364624 107.08752686 -166.50364624 107.08752686 -166.44360352 105.96533203 C-166.32361311 103.97501126 -166.16308768 101.9872536 -166 100 C-165.96777344 98.90300781 -165.93554688 97.80601562 -165.90234375 96.67578125 C-165.45568359 95.35126953 -165.45568359 95.35126953 -165 94 C-163.88496094 93.55398438 -162.76992187 93.10796875 -161.62109375 92.6484375 C-158.037696 91.43408654 -158.037696 91.43408654 -156.99267578 89.29785156 C-156.23893211 87.09123966 -155.63132016 84.88631042 -155.0625 82.625 C-150.14358176 65.8426109 -140.1250561 52.06737407 -125 43 C-112.44585442 36.26009864 -98.60428783 32.1423688 -85.1875 27.5 C-80.43001782 25.84653372 -75.67385989 24.18928614 -70.91796875 22.53125 C-69.78559784 22.13752197 -68.65322693 21.74379395 -67.48654175 21.33813477 C-59.85403116 18.67573709 -52.27724177 15.89796078 -44.73950195 12.97851562 C-42 12 -42 12 -40 12 C-40 17.94 -40 23.88 -40 30 C-41.32 30.53625 -42.64 31.0725 -44 31.625 C-53.03713615 35.71086375 -58.90746629 40.79831593 -63 50 C-65.16408985 57.18764254 -65.7074626 64.36161487 -66.2890625 71.82421875 C-66.3979573 73.17498029 -66.5072074 74.52571322 -66.61679077 75.87641907 C-66.84473016 78.70609443 -67.06764836 81.53610998 -67.28710938 84.36645508 C-67.5091094 87.2244736 -67.73784728 90.08180657 -67.97363281 92.9387207 C-69.6321436 113.01815458 -69.6321436 113.01815458 -70.4609375 133.14453125 C-70.49385895 133.97168137 -70.5267804 134.79883148 -70.56069946 135.65104675 C-70.58024546 139.71847092 -70.2183857 142.24568942 -67.65869141 145.4909668 C-63.5571094 149.36167003 -59.92084132 149.18236257 -54.5625 149.1875 C-53.24378906 149.20167969 -51.92507812 149.21585938 -50.56640625 149.23046875 C-47.33735505 149.0218006 -45.61131347 148.82856103 -43 147 C-41.60064987 144.20129973 -41.74734595 142.09501208 -42 139 C-43.72642955 136.54695869 -44.72316238 136.05248296 -47.69921875 135.48828125 C-49.64298503 135.37394206 -51.5867513 135.25960286 -53.53051758 135.14526367 C-54.34544678 135.09732666 -55.16037598 135.04938965 -56 135 C-55.41701449 120.6483519 -54.50149834 106.34512744 -53.32543945 92.0300293 C-53.05965589 88.77769724 -52.80405074 85.52466032 -52.54882812 82.27148438 C-52.37821562 80.16661701 -52.2070134 78.06179735 -52.03515625 75.95703125 C-51.92410301 74.52554497 -51.92410301 74.52554497 -51.81080627 73.06513977 C-50.15856371 53.40992862 -50.15856371 53.40992862 -43.27734375 47.52734375 C-38.27875464 43.95976226 -34.05089687 43.03710864 -28 44 C-21.51504061 45.78895432 -17.81633314 49.65282137 -14 55 C-12.86602789 58.40191633 -12.62788929 61.40000972 -12.33569336 64.97827148 C-12.27702591 65.68429504 -12.21835846 66.3903186 -12.15791321 67.11773682 C-11.96491247 69.45190574 -11.77729402 71.78647304 -11.58984375 74.12109375 C-11.45703129 75.74392449 -11.32393512 77.36673204 -11.19056702 78.98951721 C-10.91177031 82.39134739 -10.63546527 85.79336753 -10.36108398 89.19555664 C-10.00944026 93.55496288 -9.65310919 97.91396939 -9.2950964 102.27285671 C-9.02008377 105.62446708 -8.74681715 108.97621788 -8.47415352 112.3280201 C-8.34334321 113.93520135 -8.21216437 115.54235265 -8.08061028 117.14947319 C-7.89705057 119.39696276 -7.71566017 121.64461677 -7.53491211 123.89233398 C-7.37955238 125.81069313 -7.37955238 125.81069313 -7.22105408 127.76780701 C-7.05648833 130.17404297 -7 132.58814317 -7 135 C-8.13888672 135.05607422 -8.13888672 135.05607422 -9.30078125 135.11328125 C-10.29464844 135.17902344 -11.28851563 135.24476563 -12.3125 135.3125 C-13.79169922 135.39951172 -13.79169922 135.39951172 -15.30078125 135.48828125 C-18.28697936 136.05440564 -19.27820909 136.52960435 -21 139 C-21.53184718 143.52870341 -21.53184718 143.52870341 -19.99609375 147.69140625 C-16.79571978 149.78949878 -13.38660041 149.47207103 -9.6875 149.4375 C-8.94048828 149.45748047 -8.19347656 149.47746094 -7.42382812 149.49804688 C-2.16777642 149.49343226 0.8466697 148.47472262 5 145 C12.44650011 133.83024983 5.85521025 109.06384912 4.74047852 96.13830566 C4.4431204 92.67014742 4.15479541 89.20123809 3.86523438 85.73242188 C3.25777823 78.48700864 2.64559039 71.24212845 2 64 C1.91487152 63.02409912 1.82974304 62.04819824 1.74203491 61.04272461 C1.66014923 60.15407715 1.57826355 59.26542969 1.49389648 58.34985352 C1.42452377 57.58407486 1.35515106 56.8182962 1.28367615 56.02931213 C0.13421246 47.80648261 -5.21617544 40.80868509 -11.4765625 35.69140625 C-15.75368507 32.82454236 -20.2328396 30.93100168 -25 29 C-25 21.74 -25 14.48 -25 7 C-14.21447721 2.20643432 -14.21447721 2.20643432 -10.25 0.6875 C-8.92742187 0.16736328 -8.92742187 0.16736328 -7.578125 -0.36328125 C-4.37888085 -1.15339761 -3.07198737 -1.2720852 0 0 Z " fill="#DFEDF9" transform="translate(177,301)"/>
<path d="M0 0 C3.53582471 0.6027197 6.55181074 1.54507512 9.82421875 3.00390625 C11.22377808 3.61455933 11.22377808 3.61455933 12.65161133 4.23754883 C13.65345459 4.67478271 14.65529785 5.1120166 15.6875 5.5625 C28.52197085 11.03320426 41.59192708 15.18794389 55 19 C55.8859082 19.25652344 56.77181641 19.51304687 57.68457031 19.77734375 C86.62334167 28.10666728 119.01663986 32.67890034 147 19 C148.28197266 18.14921875 148.28197266 18.14921875 149.58984375 17.28125 C152 16 152 16 154.3125 16.3125 C154.869375 16.539375 155.42625 16.76625 156 17 C156.04898438 17.60328125 156.09796875 18.2065625 156.1484375 18.828125 C156.22320312 19.62734375 156.29796875 20.4265625 156.375 21.25 C156.47941406 22.43335938 156.47941406 22.43335938 156.5859375 23.640625 C156.86951363 25.99503217 156.86951363 25.99503217 158.00772095 27.8480835 C159.15394696 30.3338587 159.2654971 32.06131271 159.29052734 34.79003906 C159.30328705 35.73913147 159.31604675 36.68822388 159.32919312 37.66607666 C159.33141876 38.68892761 159.33364441 39.71177856 159.3359375 40.765625 C159.3459227 42.36491852 159.3459227 42.36491852 159.35610962 43.996521 C159.36623949 46.2593819 159.37092654 48.5222727 159.37060547 50.78515625 C159.37493131 54.19583857 159.41111594 57.60517574 159.44921875 61.015625 C159.52994313 76.31871058 158.6917436 90.55832671 151.25 104.3125 C150.90855957 104.96855225 150.56711914 105.62460449 150.21533203 106.30053711 C147.0217084 112.27634041 143.23489582 117.7130669 139 123 C138.52175781 123.63035156 138.04351562 124.26070313 137.55078125 124.91015625 C125.34886982 140.25869241 107.07262692 149.10517012 88 152 C65.07638396 153.88077475 45.31556057 149.17137364 27.625 134.1875 C11.29868404 119.77913647 -1.75607347 99.23677319 -3.18856812 77.08387756 C-3.2614918 74.03596221 -3.27745774 70.99406774 -3.265625 67.9453125 C-3.26753845 66.840737 -3.2694519 65.7361615 -3.27142334 64.59811401 C-3.27277458 62.28383148 -3.269153 59.96954108 -3.26074219 57.65527344 C-3.2499658 54.11376062 -3.26070534 50.57274792 -3.2734375 47.03125 C-3.27211692 44.77343638 -3.26955663 42.51562308 -3.265625 40.2578125 C-3.26967346 39.20256378 -3.27372192 38.14731506 -3.27789307 37.06008911 C-3.27158875 36.07491302 -3.26528442 35.08973694 -3.25878906 34.07470703 C-3.25719788 33.21297882 -3.25560669 32.35125061 -3.25396729 31.46340942 C-2.96740868 28.68387362 -2.09070572 26.56009601 -1 24 C-0.63948802 21.20225011 -0.63948802 21.20225011 -0.5859375 18.26171875 C-0.54726562 17.19501953 -0.50859375 16.12832031 -0.46875 15.02929688 C-0.4378125 13.92650391 -0.406875 12.82371094 -0.375 11.6875 C-0.33632812 10.56537109 -0.29765625 9.44324219 -0.2578125 8.28710938 C-0.16377989 5.52490148 -0.07812659 2.762696 0 0 Z " fill="#FDD8A7" transform="translate(178,111)"/>
<path d="M0 0 C1.82359822 0.00051976 3.64719701 -0.00000242 5.47079468 -0.00151062 C9.27488677 -0.00142137 13.07876486 0.00891268 16.8828125 0.02709961 C21.73900596 0.04981733 26.59488835 0.05031979 31.45112038 0.04358196 C35.21052781 0.04022851 38.96986535 0.04689741 42.72925949 0.0567112 C44.51927702 0.06053732 46.30930236 0.06172225 48.09932327 0.06012535 C50.6062406 0.05975122 53.1127703 0.07247009 55.61962891 0.08862305 C56.70933739 0.08490692 56.70933739 0.08490692 57.82106018 0.08111572 C72.18874901 0.22761111 85.54945743 6.10167294 97.0859375 14.36328125 C98.03726563 15.03617188 98.03726563 15.03617188 99.0078125 15.72265625 C112.0095964 25.86166204 120.78293288 43.19830294 123.0859375 59.36328125 C123.46849391 69.72866903 122.97483211 80.10372632 122.34130859 90.44970703 C122.20851297 92.65351759 122.09042547 94.85784085 121.97265625 97.0625 C121.88890132 98.48052103 121.80429912 99.89849233 121.71875 101.31640625 C121.64543457 102.57614258 121.57211914 103.83587891 121.49658203 105.13378906 C121.12339986 108.06866047 120.6193108 109.87340106 119.0859375 112.36328125 C117.49106787 108.3036131 116.02158065 104.36137849 115.0234375 100.11328125 C113.8928995 94.86794677 113.8928995 94.86794677 110.3359375 91.23828125 C109.5934375 90.94953125 108.8509375 90.66078125 108.0859375 90.36328125 C107.1990625 89.97140625 106.3121875 89.57953125 105.3984375 89.17578125 C100.0218777 87.85700243 95.53880546 88.09311396 90.56640625 90.66796875 C88.8635881 91.71947858 87.17081735 92.78742643 85.48828125 93.87109375 C76.45554504 99.48167136 65.58640743 100.74547391 55.1484375 100.67578125 C54.23803711 100.6701416 53.32763672 100.66450195 52.38964844 100.65869141 C43.08792554 100.495758 34.18246622 99.25204704 25.0859375 97.36328125 C23.67900635 97.07324219 23.67900635 97.07324219 22.24365234 96.77734375 C-4.2753873 91.16429861 -29.47926374 81.69687011 -54.06762695 70.37133789 C-58.46970389 68.36848892 -61.17007212 68.1540288 -65.9140625 69.36328125 C-68.83401915 72.2832379 -68.21166178 75.34587612 -68.22265625 79.2578125 C-68.24782377 80.86914413 -68.27322168 82.48047217 -68.29882812 84.09179688 C-68.32753404 86.63288383 -68.35154863 89.17390827 -68.37036133 91.71508789 C-68.39206957 94.16716537 -68.43152106 96.61849508 -68.47265625 99.0703125 C-68.47277206 99.82568802 -68.47288788 100.58106354 -68.4730072 101.35932922 C-68.55683845 105.84612077 -69.14239631 108.78484726 -71.9140625 112.36328125 C-72.2440625 112.36328125 -72.5740625 112.36328125 -72.9140625 112.36328125 C-73.60499057 101.06127827 -74.24540233 89.75751922 -74.80938721 78.44842529 C-74.89970822 76.64922017 -74.99414331 74.85022245 -75.08935547 73.05126953 C-76.01825409 53.9118749 -70.63782325 36.44482618 -57.6015625 21.98828125 C-41.46169592 4.89252907 -22.63892062 -0.12824672 0 0 Z " fill="#FDB024" transform="translate(231.9140625,23.63671875)"/>
<path d="M0 0 C16.89392299 6.93266027 31.90375849 23.7164283 39.375 39.99609375 C44.78618372 53.15364463 46.42064697 66.54831047 47.16796875 80.64453125 C47.25265016 82.10784471 47.3380615 83.57111609 47.42414856 85.03434753 C47.60124714 88.08367957 47.77110927 91.13329611 47.93530273 94.18334961 C48.14154941 98.00803147 48.36371964 101.83157927 48.59074211 105.65507698 C49.43814473 119.99193162 50.17125327 134.33667659 50.36328125 148.69921875 C50.40330513 150.25561821 50.40330513 150.25561821 50.44413757 151.84346008 C50.47003724 159.26427685 48.94749948 164.57517266 44.0703125 170.2421875 C43.42835938 170.78101563 42.78640625 171.31984375 42.125 171.875 C41.48820312 172.42929687 40.85140625 172.98359375 40.1953125 173.5546875 C35.05672137 176.93774572 29.84886155 177.29033715 23.85298443 177.25726891 C23.04509186 177.26077498 22.23719929 177.26428105 21.40482512 177.26789337 C18.69255964 177.27721127 15.98050869 177.27228304 13.26823425 177.26742554 C11.3060634 177.27116159 9.34389404 177.27576294 7.38172704 177.28115618 C1.9854925 177.29340701 -3.41068014 177.29312326 -8.80692542 177.29076743 C-14.62505211 177.29035979 -20.44315883 177.30139332 -26.26127625 177.31088257 C-37.66153982 177.32750479 -49.06178271 177.33299266 -60.46205739 177.33410732 C-69.72719193 177.33505719 -78.99231963 177.33916438 -88.25745201 177.34550858 C-90.92436287 177.34729759 -93.59127374 177.34908329 -96.25818461 177.35085833 C-96.92118545 177.35130043 -97.5841863 177.35174252 -98.26727807 177.35219802 C-116.91637095 177.36450647 -135.56546149 177.37239914 -154.2145586 177.37151146 C-155.26923623 177.37146472 -155.26923623 177.37146472 -156.34522049 177.37141704 C-159.90892132 177.37125083 -163.47262215 177.37105275 -167.03632299 177.37084763 C-167.74408745 177.37080774 -168.45185192 177.37076785 -169.18106379 177.37072675 C-170.61233599 177.37064587 -172.04360818 177.37056228 -173.47488037 177.37047596 C-195.74377774 177.36925042 -218.0126142 177.38426423 -240.28149414 177.41162109 C-265.30018238 177.44234337 -290.3188306 177.45955351 -315.3375389 177.45769465 C-328.58457363 177.4569535 -341.83154258 177.46254674 -355.07856178 177.48405075 C-366.35653417 177.50224085 -377.63440673 177.50662769 -388.91238741 177.4930319 C-394.66739623 177.48649143 -400.42221341 177.48642415 -406.17720413 177.5037384 C-411.44570732 177.51942614 -416.71386624 177.51664933 -421.9823608 177.49917014 C-423.88811784 177.49609079 -425.79390031 177.4997677 -427.69962738 177.51089029 C-447.49968412 177.61879614 -447.49968412 177.61879614 -455.33984375 171.03515625 C-456.13068359 170.05869141 -456.13068359 170.05869141 -456.9375 169.0625 C-457.48277344 168.41410156 -458.02804687 167.76570312 -458.58984375 167.09765625 C-461.37188176 162.95927838 -462.25179793 159.37860896 -462.23046875 154.421875 C-462.22934082 153.35090576 -462.22821289 152.27993652 -462.22705078 151.17651367 C-462.21399902 150.04576416 -462.20094727 148.91501465 -462.1875 147.75 C-462.17960449 146.59153564 -462.17170898 145.43307129 -462.16357422 144.23950195 C-461.89992616 117.4940778 -461.89992616 117.4940778 -459 112 C-456 110 -456 110 -452.5625 110.125 C-448.48735975 111.12591164 -447.38679422 111.59380532 -445 115 C-444.44318356 118.34149204 -444.5353 121.63643171 -444.609375 125.015625 C-444.61503479 125.98659119 -444.62069458 126.95755737 -444.62652588 127.95794678 C-444.64889689 131.05580169 -444.69909527 134.15249533 -444.75 137.25 C-444.77006403 139.35154578 -444.78831497 141.45310972 -444.8046875 143.5546875 C-444.8487642 148.7035717 -444.91779742 153.85158903 -445 159 C-441.90200554 160.03266482 -439.67740727 160.15509525 -436.42700195 160.20532227 C-435.28604568 160.22526749 -434.14508942 160.24521271 -432.96955872 160.26576233 C-431.73823715 160.28247482 -430.50691559 160.29918732 -429.23828125 160.31640625 C-427.34688667 160.3475779 -427.34688667 160.3475779 -425.4172821 160.37937927 C-422.06854542 160.43372122 -418.71979795 160.48396166 -415.37097168 160.53222656 C-411.95233771 160.58250357 -408.53379174 160.63815724 -405.11523438 160.69335938 C-398.41022638 160.800535 -391.70515247 160.90230512 -385 161 C-385.01110306 159.98380081 -385.02220612 158.96760162 -385.03364563 157.92060852 C-385.1350213 148.34205557 -385.20996518 138.76361152 -385.25906086 129.18464375 C-385.28515024 124.25999397 -385.32053629 119.3357774 -385.37719727 114.41137695 C-385.43154052 109.65864495 -385.4614255 104.9063295 -385.47438622 100.15331078 C-385.48362195 98.34037913 -385.50165752 96.52747018 -385.52865028 94.71471596 C-385.56497241 92.17430054 -385.56994419 89.63560418 -385.56762695 87.0949707 C-385.58560333 86.34618652 -385.60357971 85.59740234 -385.62210083 84.82592773 C-385.58320592 80.88266792 -385.12970897 79.16389859 -382.65202332 76.03312683 C-380 74 -380 74 -377 73.375 C-374 74 -374 74 -369 79 C-369 106.06 -369 133.12 -369 161 C-261.75 161 -154.5 161 -44 161 C-44 133.94 -44 106.88 -44 79 C-39 74 -39 74 -36 73.375 C-31.90132988 74.22888961 -30.58544833 75.73306071 -28 79 C-27.53021583 81.90205133 -27.36297352 84.20421789 -27.43237305 87.0949707 C-27.43164291 87.89549362 -27.43091278 88.69601654 -27.43016052 89.52079773 C-27.43363315 92.15649097 -27.47247666 94.79039829 -27.51171875 97.42578125 C-27.52104808 99.25708552 -27.52816363 101.08840229 -27.53315735 102.91972351 C-27.55221774 107.73197077 -27.60131016 112.54345948 -27.65667725 117.35540771 C-27.70789049 122.26873514 -27.73067582 127.18218553 -27.75585938 132.09570312 C-27.80942991 141.73080142 -27.89473106 151.36533755 -28 161 C-20.48932084 160.93880347 -12.97894796 160.86170817 -5.46865368 160.76428509 C-1.9813232 160.71954792 1.50588957 160.68029968 4.9934082 160.65356445 C9.00241787 160.62259149 13.01079367 160.56780184 17.01953125 160.51171875 C18.89932426 160.50213387 18.89932426 160.50213387 20.8170929 160.49235535 C21.97806992 160.47256119 23.13904694 160.45276703 24.33520508 160.43237305 C25.35890701 160.42126999 26.38260895 160.41016693 27.43733215 160.39872742 C30.01022232 160.18796481 30.01022232 160.18796481 31.83285522 158.73927307 C33.28961226 156.56842132 33.36447656 155.34356062 33.33911133 152.73925781 C33.33634689 151.86775085 33.33358246 150.9962439 33.33073425 150.09832764 C33.31053726 149.14291077 33.29034027 148.1874939 33.26953125 147.203125 C33.25815628 146.19276184 33.24678131 145.18239868 33.23506165 144.14141846 C33.05060788 131.97699983 32.49613813 119.82302172 31.88305664 107.67382812 C31.68706889 103.74134973 31.50822127 99.80832236 31.33007812 95.875 C30.09156468 70.01681464 28.8251248 44.54483231 8.75 25.6875 C4.09903748 21.80209414 -1.04047076 18.78134259 -6.27734375 15.76171875 C-9 14 -9 14 -11 11 C-11.23062101 7.18706602 -10.79682369 3.94438363 -8.3125 1 C-5.31709504 -0.29531025 -3.25416837 -0.24178352 0 0 Z " fill="#040404" transform="translate(462,327)"/>
<path d="M0 0 C6.60449219 2.2014974 13.07997395 4.51713285 19.5703125 7.01171875 C23.25370484 8.07310629 26.18688391 8.33177848 30 8 C30.61875 7.29875 31.2375 6.5975 31.875 5.875 C32.926875 4.946875 32.926875 4.946875 34 4 C39.91018496 4.4870303 45.77157768 6.81502673 51.31640625 8.8203125 C52.42930275 9.21559647 52.42930275 9.21559647 53.56468201 9.61886597 C55.899093 10.44928203 58.23080554 11.2869907 60.5625 12.125 C62.15933134 12.69449816 63.75633521 13.26351283 65.35351562 13.83203125 C69.23769035 15.21578281 73.11946556 16.60607411 77 18 C76.979375 19.093125 76.95875 20.18625 76.9375 21.3125 C76.81455548 24.94384191 76.81455548 24.94384191 78 28 C79.64807042 28.7113973 81.31961953 29.36869684 83 30 C99.66374555 40.01551546 111.12642122 53.91641952 116 73 C118.67285113 86.96513844 118.85257632 101.34174015 119.52801514 115.50305176 C119.68797631 118.79670166 119.86098621 122.08968155 120.03125 125.3828125 C120.63147156 137.30008768 121.14978176 149.22458779 121.3359375 161.15625 C121.36426666 162.10230103 121.39259583 163.04835205 121.42178345 164.02307129 C121.43028824 165.32359436 121.43028824 165.32359436 121.43896484 166.65039062 C121.45725845 167.77314392 121.45725845 167.77314392 121.47592163 168.9185791 C120.77750744 171.97306076 119.47984583 173.13347587 117 175 C114.31707764 175.48101807 114.31707764 175.48101807 111.22167969 175.45410156 C110.0607782 175.45379944 108.89987671 175.45349731 107.70379639 175.45318604 C106.45576233 175.43254089 105.20772827 175.41189575 103.921875 175.390625 C102.64016418 175.38496521 101.35845337 175.37930542 100.03790283 175.37347412 C96.63786372 175.35823468 93.23851306 175.31896916 89.83874512 175.2746582 C86.36654981 175.23366799 82.89424276 175.21545521 79.421875 175.1953125 C72.61427278 175.15247182 65.80724036 175.08213674 59 175 C59 171.04 59 167.08 59 163 C64.94 163 70.88 163 77 163 C76.42950528 151.75414686 76.42950528 151.75414686 75.84936523 140.50878906 C75.7550081 138.69466341 75.66068889 136.88053578 75.56640625 135.06640625 C75.51868576 134.14850311 75.47096527 133.23059998 75.42179871 132.28488159 C75.14695851 126.96186632 74.88679492 121.63843755 74.64154053 116.3139801 C73.79410026 77.30192459 73.79410026 77.30192459 57 43 C56.3090625 42.14664063 55.618125 41.29328125 54.90625 40.4140625 C40.71978265 23.77993001 20.99091997 18.01808892 1 11 C1 27.5 1 44 1 61 C0.67 61 0.34 61 0 61 C0 40.87 0 20.74 0 0 Z " fill="#CADDEB" transform="translate(375,313)"/>
<path d="M0 0 C0.556875 0.226875 1.11375 0.45375 1.6875 0.6875 C1.73648438 1.29078125 1.78546875 1.8940625 1.8359375 2.515625 C1.94808594 3.71445313 1.94808594 3.71445313 2.0625 4.9375 C2.16691406 6.12085938 2.16691406 6.12085938 2.2734375 7.328125 C2.55701363 9.68253217 2.55701363 9.68253217 3.69522095 11.5355835 C4.84144696 14.0213587 4.9529971 15.74881271 4.97802734 18.47753906 C4.99078705 19.42663147 5.00354675 20.37572388 5.01669312 21.35357666 C5.01891876 22.37642761 5.02114441 23.39927856 5.0234375 24.453125 C5.0334227 26.05241852 5.0334227 26.05241852 5.04360962 27.684021 C5.05373949 29.9468819 5.05842654 32.2097727 5.05810547 34.47265625 C5.06243131 37.88333857 5.09861594 41.29267574 5.13671875 44.703125 C5.21744313 60.00621058 4.3792436 74.24582671 -3.0625 88 C-3.40394043 88.65605225 -3.74538086 89.31210449 -4.09716797 89.98803711 C-7.2907916 95.96384041 -11.07760418 101.4005669 -15.3125 106.6875 C-15.79074219 107.31785156 -16.26898438 107.94820313 -16.76171875 108.59765625 C-29.91052325 125.13726993 -48.88213805 133.18313305 -69.3125 135.6875 C-66.76003988 131.12175111 -64.05690141 126.77393706 -61.125 122.4375 C-43.69080745 95.82300145 -38.91573908 68.44927204 -38.625 37.1875 C-38.59176038 34.70701397 -38.55726482 32.22654443 -38.52148438 29.74609375 C-38.43735075 23.72667595 -38.36869029 17.70724017 -38.3125 11.6875 C-36.37479736 11.29896851 -36.37479736 11.29896851 -34.39794922 10.90258789 C-32.67930283 10.55123322 -30.96071886 10.19957312 -29.2421875 9.84765625 C-28.39358154 9.67834595 -27.54497559 9.50903564 -26.6706543 9.33459473 C-18.85276264 7.72236671 -11.44804801 5.44662701 -4.7421875 0.97265625 C-2.3125 -0.3125 -2.3125 -0.3125 0 0 Z " fill="#F2C691" transform="translate(332.3125,127.3125)"/>
<path d="M0 0 C0.84983774 0.16173675 1.69967548 0.32347349 2.57526588 0.49011135 C6.03583341 1.00533503 9.29850805 1.13900279 12.79574585 1.15821838 C13.45424078 1.16315636 14.1127357 1.16809434 14.79118502 1.17318195 C16.98367175 1.18846232 19.17612941 1.19689169 21.36865234 1.20532227 C22.94587456 1.21490824 24.52309424 1.22491875 26.10031128 1.23532104 C30.37253077 1.26229819 34.64476122 1.28334657 38.91701841 1.30332303 C43.38534245 1.32522705 47.85363297 1.3525941 52.32192993 1.37937927 C60.77904474 1.42924653 69.23617822 1.47420744 77.69332945 1.51740164 C87.32329541 1.56682507 96.95322772 1.62172424 106.58316112 1.67708123 C126.38874271 1.79080964 146.19435645 1.89766852 166 2 C166 5.96 166 9.92 166 14 C58.75 14 -48.5 14 -159 14 C-159 10.04 -159 6.08 -159 2 C-106.53 2 -54.06 2 0 2 C0 1.34 0 0.68 0 0 Z " fill="#CBDEEC" transform="translate(252,474)"/>
<path d="M0 0 C3.9791034 -0.05868218 7.95809353 -0.0938239 11.9375 -0.125 C13.05447266 -0.14175781 14.17144531 -0.15851562 15.32226562 -0.17578125 C31.27341472 -0.26933638 45.00829487 4.69626278 58 14 C58.63421875 14.44859375 59.2684375 14.8971875 59.921875 15.359375 C72.9236589 25.49838079 81.69699538 42.83502169 84 59 C84.38255641 69.36538778 83.88889461 79.74044507 83.25537109 90.08642578 C83.12257547 92.29023634 83.00448797 94.4945596 82.88671875 96.69921875 C82.80296382 98.11723978 82.71836162 99.53521108 82.6328125 100.953125 C82.55949707 102.21286133 82.48618164 103.47259766 82.41064453 104.77050781 C82.03746236 107.70537922 81.5333733 109.51011981 80 112 C78.40513037 107.94033185 76.93564315 103.99809724 75.9375 99.75 C74.806962 94.50466552 74.806962 94.50466552 71.25 90.875 C70.5075 90.58625 69.765 90.2975 69 90 C68.113125 89.608125 67.22625 89.21625 66.3125 88.8125 C60.86931568 87.47737932 56.39250977 87.74678059 51.375 90.375 C49.68111964 91.4235926 48.00696087 92.50507235 46.359375 93.625 C43.86931367 95.07616157 41.83610577 95.59771549 39 96 C38.92254601 91.27530685 38.98917427 86.6981578 39.5 82 C41.74205828 58.00663008 36.94097167 37.73700209 22.0546875 18.390625 C16.28354734 11.67591439 9.64494205 6.89729707 2.08984375 2.34765625 C1.40019531 1.90292969 0.71054687 1.45820313 0 1 C0 0.67 0 0.34 0 0 Z " fill="#FC8E1C" transform="translate(271,24)"/>
<path d="M0 0 C1.63195312 0.39832031 1.63195312 0.39832031 3.296875 0.8046875 C25.77331612 6.23827021 46.98099572 8.9364149 69 0 C69.99 0 70.98 0 72 0 C73.3720616 6.27603295 74.66170006 12.66810299 73 19 C69.51163647 23.95598918 63.7552151 26.63979933 58.5625 29.50390625 C55.85000344 31.08757421 53.3484057 32.83521948 50.8125 34.6875 C49.96719727 35.30189941 49.12189453 35.91629883 48.25097656 36.54931641 C46.60791616 37.74873125 44.96909001 38.95397229 43.33496094 40.16552734 C37.74975409 44.09042836 37.74975409 44.09042836 34.44140625 43.69140625 C33.63574219 43.13324219 32.83007812 42.57507813 32 42 C31.4342627 41.62552734 30.86852539 41.25105469 30.28564453 40.86523438 C27.45571341 38.9609549 24.71052147 36.94733127 21.96337891 34.92602539 C18.17408648 32.16271321 14.44160063 29.62576713 10.29296875 27.4296875 C1.51588773 22.59777847 1.51588773 22.59777847 -1 19 C-2.58284322 12.68712445 -1.29758081 6.26082739 0 0 Z " fill="#FAD5A5" transform="translate(220,272)"/>
<path d="M0 0 C5.90855112 3.51759082 10.52063207 8.95859215 12.625 15.5 C13.57484268 22.78949037 12.78655352 29.34461025 8.625 35.5 C3.92868987 40.62770396 -0.60041034 44.07158182 -7.64453125 44.87109375 C-16.43746774 45.03590072 -21.50433006 44.1655891 -27.859375 38.078125 C-32.92456794 32.53620801 -35.04415385 26.51941655 -34.78515625 19.12109375 C-33.64586178 11.84045954 -29.86246745 6.2351151 -24.21875 1.65625 C-17.23543848 -2.72311485 -7.58467961 -3.3544767 0 0 Z " fill="#7786E4" transform="translate(379.375,390.5)"/>
<path d="M0 0 C0.70898438 0.23976563 1.41796875 0.47953125 2.1484375 0.7265625 C1.45997329 5.30426514 -0.22588261 9.36464308 -2.01953125 13.59765625 C-2.49547478 14.73582542 -2.49547478 14.73582542 -2.98103333 15.89698792 C-3.99605439 18.32118508 -5.01750923 20.74261185 -6.0390625 23.1640625 C-6.70679209 24.75698887 -7.37411357 26.35008637 -8.04101562 27.94335938 C-11.93095058 37.2246014 -15.87111292 46.48379191 -19.8515625 55.7265625 C-22.69280441 54.4064802 -25.01380183 52.92809626 -27.42578125 50.93359375 C-28.08964844 50.38856201 -28.75351562 49.84353027 -29.4375 49.28198242 C-30.13101562 48.70681885 -30.82453125 48.13165527 -31.5390625 47.5390625 C-32.96947089 46.36387557 -34.40045717 45.18939166 -35.83203125 44.015625 C-36.86529541 43.16726074 -36.86529541 43.16726074 -37.91943359 42.30175781 C-41.50995048 39.37453833 -45.17044275 36.53852897 -48.8515625 33.7265625 C-47.36222889 29.88122092 -45.36138797 28.4599589 -41.9140625 26.2890625 C-40.8415625 25.598125 -39.7690625 24.9071875 -38.6640625 24.1953125 C-38.06207031 23.80859375 -37.46007812 23.421875 -36.83984375 23.0234375 C-32.98721961 20.51052745 -29.20636739 17.89168374 -25.4140625 15.2890625 C-24.59929443 14.73404053 -23.78452637 14.17901855 -22.94506836 13.60717773 C-19.23088915 11.07273982 -15.54022061 8.52001705 -11.91796875 5.85546875 C-11.33007568 5.4287085 -10.74218262 5.00194824 -10.13647461 4.56225586 C-8.58800789 3.43284764 -7.05132369 2.28733405 -5.515625 1.140625 C-2.8515625 -0.2734375 -2.8515625 -0.2734375 0 0 Z " fill="#0EADBD" transform="translate(318.8515625,293.2734375)"/>
<path d="M0 0 C4.14139969 0.56406161 6.70586666 1.87754013 10.125 4.25 C11.17171875 4.96929687 12.2184375 5.68859375 13.296875 6.4296875 C13.88017578 6.83541992 14.46347656 7.24115234 15.06445312 7.65917969 C17.20605548 9.14274176 19.35980125 10.60749664 21.515625 12.0703125 C31.1043312 18.58502949 40.60430903 25.20996558 50 32 C48.45360707 36.33596448 45.10951964 38.52817612 41.5625 41.1875 C40.29729443 42.15509695 39.03298343 43.12386465 37.76953125 44.09375 C37.13740723 44.57714844 36.5052832 45.06054688 35.85400391 45.55859375 C32.1880208 48.4087339 28.65641191 51.42187692 25.109375 54.41796875 C23 56 23 56 21 56 C18.18755024 49.39835563 15.3759515 42.7963493 12.56494141 36.1940918 C11.60875684 33.94856577 10.65237817 31.70312239 9.69580078 29.45776367 C8.32012598 26.22857064 6.94515164 22.99908014 5.5703125 19.76953125 C5.14315948 18.76727005 4.71600647 17.76500885 4.27590942 16.7323761 C3.87564545 15.79177841 3.47538147 14.85118073 3.06298828 13.88208008 C2.71213165 13.05823318 2.36127502 12.23438629 1.99978638 11.38557434 C1.66985687 10.59833481 1.33992737 9.81109528 1 9 C0.61971649 8.12200241 0.23943298 7.24400482 -0.15237427 6.33940125 C-1.10211289 3.71817393 -0.95287262 2.57275606 0 0 Z " fill="#0EADBD" transform="translate(192,293)"/>
<path d="M0 0 C3.96 0 7.92 0 12 0 C12.64822813 3.66625768 13.29365373 7.33297247 13.9375 11 C14.11990234 12.02996094 14.30230469 13.05992187 14.49023438 14.12109375 C15.47397593 19.7373637 16.44749611 25.32374953 17 31 C17.07726318 31.68118896 17.15452637 32.36237793 17.23413086 33.06420898 C17.69320478 40.17468319 14.95885655 45.72494915 12 52.0625 C11.52304687 53.11888672 11.04609375 54.17527344 10.5546875 55.26367188 C9.38456613 57.84964011 8.19958142 60.42759974 7 63 C6.34 63 5.68 63 5 63 C3.305577 59.36645408 1.64976741 55.71651187 0 52.0625 C-0.47695312 51.04091797 -0.95390625 50.01933594 -1.4453125 48.96679688 C-6.42502973 37.83357193 -4.99005708 29.56879288 -3.0625 17.75 C-2.88009766 16.59242188 -2.69769531 15.43484375 -2.50976562 14.2421875 C-1.75233602 9.47175816 -0.94751051 4.73755253 0 0 Z " fill="#F9961E" transform="translate(250,385)"/>
<path d="M0 0 C2.85344178 0.9239949 4.49109773 2.05769645 6.77270508 3.9909668 C7.52358398 4.61938477 8.27446289 5.24780273 9.0480957 5.89526367 C9.81702148 6.55461914 10.58594727 7.21397461 11.37817383 7.89331055 C12.16643555 8.5565332 12.95469727 9.21975586 13.7668457 9.90307617 C15.70696598 11.53748053 17.6394027 13.18012922 19.56567383 14.83081055 C18.27592211 17.26934112 16.98395858 19.70665467 15.69067383 22.14331055 C15.32586914 22.83360352 14.96106445 23.52389648 14.58520508 24.23510742 C14.23071289 24.90219727 13.8762207 25.56928711 13.51098633 26.2565918 C13.0239624 27.17565308 13.0239624 27.17565308 12.52709961 28.11328125 C9.95647067 32.70555515 9.95647067 32.70555515 7.66137695 33.44116211 C1.63489192 34.17095165 -4.61907508 34.89520107 -10.43432617 32.83081055 C-15.45583948 28.43251659 -18.07787378 21.95375514 -20.43432617 15.83081055 C-16.72651895 12.05382782 -12.91356993 8.44572735 -8.93432617 4.95581055 C-8.37874023 4.4453418 -7.8231543 3.93487305 -7.25073242 3.40893555 C-3.08849945 -0.21465551 -3.08849945 -0.21465551 0 0 Z " fill="#FBBC13" transform="translate(256.434326171875,336.169189453125)"/>
<path d="M0 0 C0.89726807 0.15847412 1.79453613 0.31694824 2.71899414 0.48022461 C8.28430427 1.27059284 13.88458949 1.23450431 19.49609375 1.31640625 C20.68477554 1.33718735 21.87345734 1.35796844 23.09815979 1.37937927 C26.87788368 1.44451987 30.65767431 1.50359425 34.4375 1.5625 C37.00716823 1.60571899 39.57682983 1.64933434 42.14648438 1.69335938 C48.430922 1.80016477 54.71542644 1.90153144 61 2 C61 5.96 61 9.92 61 14 C53.63725025 14.09041729 46.27480453 14.16378212 38.91161728 14.20724869 C35.4924632 14.22811201 32.07370906 14.25640505 28.65478516 14.30175781 C24.72303069 14.35358618 20.79143743 14.37295578 16.859375 14.390625 C15.02013458 14.42159271 15.02013458 14.42159271 13.14373779 14.45318604 C12.00285706 14.45348816 10.86197632 14.45379028 9.68652344 14.45410156 C8.68280701 14.46298401 7.67909058 14.47186646 6.6449585 14.48101807 C3.2689454 13.86704878 2.08891722 12.66933752 0 10 C-0.390625 7.421875 -0.390625 7.421875 -0.25 4.75 C-0.21390625 3.85796875 -0.1778125 2.9659375 -0.140625 2.046875 C-0.09421875 1.37140625 -0.0478125 0.6959375 0 0 Z " fill="#CBDEEC" transform="translate(16,474)"/>
<path d="M0 0 C4.30739041 2.3717425 7.10863109 5.46601752 9 10 C9.51372067 15.44543913 8.697338 19.23470286 6 24 C2.43609159 27.4748107 -0.59573229 28.32612545 -5.4375 28.625 C-10.45905087 28.44028355 -13.20066288 27.21887868 -16.6953125 23.640625 C-20.10669398 19.35086386 -20.56842593 15.40004632 -20 10 C-15.37871429 1.27090477 -9.74099141 -1.86737174 0 0 Z " fill="#61AEF5" transform="translate(374,398)"/>
<path d="M0 0 C5.21260167 0.51882816 9.92178467 2.2321711 14.8125 4 C15.58787109 4.27328125 16.36324219 4.5465625 17.16210938 4.828125 C22.86313776 6.86313776 22.86313776 6.86313776 24 8 C24.07205511 9.68608966 24.08386068 11.37500659 24.0625 13.0625 C24.05347656 13.98160156 24.04445313 14.90070313 24.03515625 15.84765625 C24.02355469 16.55792969 24.01195312 17.26820313 24 18 C22.94087402 17.63648438 22.94087402 17.63648438 21.86035156 17.265625 C18.65901313 16.17079042 15.4545812 15.08530439 12.25 14 C11.13882812 13.6184375 10.02765625 13.236875 8.8828125 12.84375 C7.81289063 12.4828125 6.74296875 12.121875 5.640625 11.75 C4.16384277 11.24726563 4.16384277 11.24726563 2.65722656 10.734375 C-0.18310505 9.82241132 -0.18310505 9.82241132 -4 10 C-3.52449439 8.51965236 -3.04448784 7.04074979 -2.5625 5.5625 C-2.29566406 4.73878906 -2.02882813 3.91507812 -1.75390625 3.06640625 C-1 1 -1 1 0 0 Z " fill="#C9DBE9" transform="translate(336,300)"/>
<path d="M0 0 C1.32 0.99 2.64 1.98 4 3 C1.8197371 9.87947032 -0.80254035 16.45055898 -3.6875 23.0625 C-4.10322266 24.02349609 -4.51894531 24.98449219 -4.94726562 25.97460938 C-5.96151487 28.31787486 -6.97914002 30.65960887 -8 33 C-8.66 32.67 -9.32 32.34 -10 32 C-12.00677029 25.28346272 -12.03377257 19.53303312 -8.8671875 13.32421875 C-2.99495175 2.99495175 -2.99495175 2.99495175 0 0 Z " fill="#0FBCBC" transform="translate(288,361)"/>
<path d="M0 0 C5.41341965 5.01016265 11.18352152 12.46279137 12.29541016 20.00341797 C12.43453178 24.08798891 12.02939296 28.05013825 11 32 C10.01 32.495 10.01 32.495 9 33 C7.23428649 29.09428127 5.48939011 25.18012028 3.76318359 21.25683594 C3.17311978 19.92359664 2.57744525 18.59282584 1.97607422 17.26464844 C1.11238154 15.35453142 0.26928339 13.43643344 -0.5703125 11.515625 C-1.08352051 10.36352539 -1.59672852 9.21142578 -2.12548828 8.02441406 C-3 5 -3 5 -2.21435547 2.65527344 C-1 1 -1 1 0 0 Z " fill="#0FBBBB" transform="translate(223,361)"/>
<path d="M0 0 C1.32 0 2.64 0 4 0 C4 6.27 4 12.54 4 19 C2.02 19.99 2.02 19.99 0 21 C0 14.07 0 7.14 0 0 Z " fill="#E9C89A" transform="translate(352,152)"/>
<path d="M0 0 C1.32 0 2.64 0 4 0 C4 6.93 4 13.86 4 21 C2.68 20.34 1.36 19.68 0 19 C0 12.73 0 6.46 0 0 Z " fill="#E9C89A" transform="translate(156,152)"/>
</svg>