<svg width="27" height="25" viewBox="0 0 27 25" fill="none" xmlns="http://www.w3.org/2000/svg">
<path d="M23.7981 20.793L18.9334 16.254C20.3769 14.5465 21.0667 12.3888 20.8615 10.2225C20.6563 8.0561 19.5717 6.04476 17.8296 4.59991C16.0875 3.15505 13.8195 2.3859 11.4897 2.44979C9.15984 2.51368 6.94421 3.40579 5.29605 4.94361C3.64789 6.48143 2.69178 8.54874 2.6233 10.7226C2.55483 12.8965 3.37917 15.0126 4.92769 16.6381C6.47621 18.2636 8.63186 19.2756 10.9537 19.467C13.2755 19.6585 15.5879 19.0149 17.418 17.668L22.2826 22.207L23.7981 20.793ZM11.787 17.5C10.4092 17.5 9.0623 17.1188 7.91669 16.4046C6.77108 15.6903 5.87818 14.6752 5.35091 13.4875C4.82364 12.2997 4.68569 10.9928 4.95449 9.73193C5.22328 8.47105 5.88677 7.31286 6.86103 6.40382C7.83529 5.49478 9.07658 4.87571 10.4279 4.62491C11.7793 4.37411 13.18 4.50283 14.4529 4.9948C15.7258 5.48677 16.8138 6.31989 17.5793 7.38881C18.3448 8.45773 18.7534 9.71444 18.7534 11C18.7511 12.7233 18.0164 14.3753 16.7105 15.5939C15.4045 16.8124 13.6339 17.4979 11.787 17.5Z" fill="#094B89"/>
</svg>
