<svg width="24" height="25" viewBox="0 0 24 25" fill="none" xmlns="http://www.w3.org/2000/svg">
<path d="M22 11.5C22.0023 10.9495 21.853 10.409 21.5686 9.9376C21.2842 9.46625 20.8755 9.08225 20.3874 8.82766C19.8993 8.57306 19.3505 8.45769 18.8012 8.49418C18.2519 8.53066 17.7232 8.71759 17.2731 9.0345C16.8229 9.35142 16.4686 9.78609 16.249 10.2909C16.0294 10.7957 15.953 11.3513 16.028 11.8966C16.1031 12.442 16.3268 12.9562 16.6746 13.383C17.0224 13.8097 17.481 14.1325 18 14.316V19.5H10V15.5C11.3256 15.4984 12.5964 14.9711 13.5338 14.0338C14.4711 13.0964 14.9984 11.8256 15 10.5V3.5H12V5.5H13V10.5C13 11.2956 12.6839 12.0587 12.1213 12.6213C11.5587 13.1839 10.7956 13.5 10 13.5H8C7.20435 13.5 6.44129 13.1839 5.87868 12.6213C5.31607 12.0587 5 11.2956 5 10.5V5.5H6V3.5H3V10.5C3.00159 11.8256 3.52888 13.0964 4.46622 14.0338C5.40356 14.9711 6.67441 15.4984 8 15.5V19.5C8 20.0304 8.21071 20.5391 8.58579 20.9142C8.96086 21.2893 9.46957 21.5 10 21.5H18C18.5304 21.5 19.0391 21.2893 19.4142 20.9142C19.7893 20.5391 20 20.0304 20 19.5V14.316C20.5829 14.1099 21.0879 13.7288 21.4459 13.2247C21.8039 12.7206 21.9974 12.1183 22 11.5ZM19 12.5C18.8022 12.5 18.6089 12.4414 18.4444 12.3315C18.28 12.2216 18.1518 12.0654 18.0761 11.8827C18.0004 11.7 17.9806 11.4989 18.0192 11.3049C18.0578 11.1109 18.153 10.9327 18.2929 10.7929C18.4327 10.653 18.6109 10.5578 18.8049 10.5192C18.9989 10.4806 19.2 10.5004 19.3827 10.5761C19.5654 10.6518 19.7216 10.78 19.8315 10.9444C19.9414 11.1089 20 11.3022 20 11.5C20 11.7652 19.8946 12.0196 19.7071 12.2071C19.5196 12.3946 19.2652 12.5 19 12.5Z" fill="#5151E1"/>
</svg>
